# xmcd CD database file
#
# Track frame offsets:
#	150
#	124378
#	189136
#	226021
#	303906
#
# Disc length: 4747 seconds
#
# Revision: 0
# Processed by: cddbd v1.5.2PL0 Copyright (c) Steve Scherf et al.
# Submitted via: CDex 1.72
#
DISCID=32128905
DTITLE=Lol Coxhill and Veryon Weston - Worms Organising Archdukes
DYEAR=2002
DGENRE=Jazz
TTITLE0=The First Duet of Worms
TTITLE1=The Second Duet of Worms
TTITLE2=Organ Interlude
TTITLE3=The First Archduke Duo
TTITLE4=The Second Archduke Duo
EXTD=YEAR: 2002
EXTT0=
EXTT1=
EXTT2=
EXTT3=
EXTT4=
PLAYORDER=
